<svg xmlns="http://www.w3.org/2000/svg" viewBox="0 0 12 12" fill="currentColor" id="Potted-Plant--Streamline-Phosphor" height="12" width="12">
  <desc>
    Potted Plant Streamline Icon: https://streamlinehq.com
  </desc>
  <path d="M9.844687500000001 6.9046734375h-4.3364390625l0.1328625 -0.1328625 1.1341453125 -1.13415c0.458071875 0.230690625 0.9627890625 0.35368125 1.475634375 0.3595828125 0.51620625 0.0013640625 1.02275625 -0.1398984375 1.4637609375 -0.40820156249999995 1.341075 -0.811884375 2.05966875 -2.691196875 1.9222828124999998 -5.027334375 -0.013378125 -0.229040625 -0.1961203125 -0.41178750000000003 -0.425165625 -0.4251609375 -2.3361375 -0.13682343749999998 -4.21545 0.5812078125 -5.0273296875 1.9222828124999998 -0.5291953125 0.8735062499999999 -0.5427609375 1.9284984375 -0.049190625 2.9399578125l-0.8135765625 0.8135765625 -0.6903234375 -0.6903234375c0.339225 -0.7491234375 0.31491562500000003 -1.5265171875 -0.078590625 -2.175571875 -0.6145640625 -1.0171125 -2.02348125 -1.5593109375000003 -3.76936875 -1.456978125 -0.22861875 0.013621875000000002 -0.410971875 0.1959796875 -0.42459375 0.4245984375 -0.10289999999999999 1.7453203125 0.4398609375 3.1542375000000002 1.457540625 3.76936875 0.3404671875 0.207890625 0.7318359375000001 0.3174703125 1.1307515625 0.3166125 0.361903125 -0.003590625 0.718875 -0.0843515625 1.0470796875000001 -0.23689218750000002l0.687496875 0.68919375 -0.45230156250000003 0.45230156250000003H1.703259375c-0.3481828125 0 -0.5657953124999999 0.37691718750000003 -0.39170625000000003 0.67845 0.0807984375 0.1399453125 0.2301140625 0.226153125 0.39170625000000003 0.226153125h0.5421984375l0.746859375 3.362296875c0.090225 0.4150078125 0.45842343750000003 0.7103671875 0.8831203125 0.7084171875h3.7976390625c0.424696875 0.00195 0.7928953125 -0.29340937500000003 0.8831156250000001 -0.7084171875l0.7468640625 -3.362296875H9.844687500000001c0.3481828125 0 0.5657953124999999 -0.37691718750000003 0.39170625000000003 -0.6784546874999999 -0.0807984375 -0.13994062499999999 -0.2301140625 -0.22614843749999997 -0.39170625000000003 -0.22614843749999997Zm-2.883421875 -4.37715c0.591384375 -0.9758390625000001 1.9923890625 -1.5265171875 3.788025 -1.5022078125 0.0231796875 1.7984671875 -0.5263640625 3.1989046875000002 -1.5022078125 3.7880296875 -0.6507468750000001 0.39576093749999997 -1.4360578125 0.36975468749999996 -2.220796875 -0.0667171875 -0.43703906249999996 -0.7819171875 -0.46078593749999996 -1.5683531249999998 -0.0650203125 -2.2191046875Zm-3.21643125 2.3480109375c-0.5201437499999999 0.2787328125 -1.0352062499999999 0.2917359375 -1.4603671875 0.0339234375 -0.650184375 -0.39406875 -1.0250296875 -1.32298125 -1.033509375 -2.5278 1.20481875 0.0084796875 2.1342984375 0.383325 2.5278 1.033509375 0.2578125 0.4251609375 0.2425453125 0.9402234375 -0.0339234375 1.4603671875Zm3.9282421874999995 6.099853125H3.8754375000000003l-0.702196875 -3.1661109375h5.201465625Z" stroke-width="0.0469"></path>
</svg>