<svg xmlns="http://www.w3.org/2000/svg" viewBox="0 0 12 12" fill="currentColor" id="Wall--Streamline-Phosphor" height="12" width="12">
  <desc>
    Wall Streamline Icon: https://streamlinehq.com
  </desc>
  <path d="M11.42769375 1.4769234375H0.57230625c-0.24980156250000002 0 -0.45230625 0.2025046875 -0.45230625 0.45230625v8.141540625000001c0 0.2498109375 0.20249531249999997 0.452315625 0.45230625 0.45230625h10.8553875c0.24979218749999998 -0.000009375 0.45230625 -0.20251406249999998 0.45230625 -0.45230625V1.9292296875c0 -0.24980156250000002 -0.2025046875 -0.45230625 -0.45230625 -0.45230625ZM3.7384593749999997 6.9046171874999995v-1.809234375h4.523081250000001v1.809234375Zm-2.7138421875 0v-1.809234375h1.8092296874999998v1.809234375Zm8.1415359375 -1.809234375h1.8092296874999998v1.809234375h-1.8092296874999998Zm1.8092296874999998 -0.9046125h-4.5230765625V2.381540625h4.5230765625ZM5.5476937500000005 2.381540625v1.8092296874999998H1.0246171875V2.381540625ZM1.0246171875 7.8092296875h4.5230765625v1.8092296874999998H1.0246171875Zm5.4276890625 1.8092296874999998v-1.8092296874999998h4.5230765625v1.8092296874999998Z" stroke-width="0.0469"></path>
</svg>